<?xml version="1.0" encoding="UTF-8" standalone="no"?>
<!-- Created with Inkscape (http://www.inkscape.org/) -->

<svg
   xmlns:dc="http://purl.org/dc/elements/1.1/"
   xmlns:cc="http://creativecommons.org/ns#"
   xmlns:rdf="http://www.w3.org/1999/02/22-rdf-syntax-ns#"
   xmlns:svg="http://www.w3.org/2000/svg"
   xmlns="http://www.w3.org/2000/svg"
   xmlns:sodipodi="http://sodipodi.sourceforge.net/DTD/sodipodi-0.dtd"
   xmlns:inkscape="http://www.inkscape.org/namespaces/inkscape"
   width="307.34464"
   height="317.93491"
   id="svg2"
   version="1.1"
   inkscape:version="0.48.1 "
   sodipodi:docname="Fly.svg">
  <defs
     id="defs4">
    <inkscape:path-effect
       effect="skeletal"
       id="path-effect4212"
       is_visible="true"
       pattern="m 0,1.6979328 c 0,0 157.90527,-2.91177 225.26397,-1.10915997 13.82,0.36983 44.9139,1.38423997 78.6339,1.51026997 40.1184,0.14994 93.1454,-1.99510997 169.9933,-1.71893997 173.3809,0.62311997 243.0916,1.31782997 243.0916,1.31782997 0,0 -69.8269,2.08053 -243.0983,4.72436 -76.8424,1.17249 -130.2954,-1.75388 -170.3492,-1.46 -33.9874,0.24937 -64.6294,2.29306 -78.2713,2.38625 C 159.29407,7.7992028 0,1.6979328 0,1.6979328 z"
       copytype="single_stretched"
       prop_scale="1"
       scale_y_rel="false"
       spacing="0"
       normal_offset="0"
       tang_offset="0"
       prop_units="false"
       vertical_pattern="false"
       fuse_tolerance="0" />
    <inkscape:path-effect
       effect="skeletal"
       id="path-effect4173"
       is_visible="true"
       pattern="m 0,1.6979328 c 0,0 157.90527,-2.91177 225.26397,-1.10915997 13.82,0.36983 44.9139,1.38423997 78.6339,1.51026997 40.1184,0.14994 93.1454,-1.99510997 169.9933,-1.71893997 173.3809,0.62311997 243.0916,1.31782997 243.0916,1.31782997 0,0 -69.8269,2.08053 -243.0983,4.72436 -76.8424,1.17249 -130.2954,-1.75388 -170.3492,-1.46 -33.9874,0.24937 -64.6294,2.29306 -78.2713,2.38625 C 159.29407,7.7992028 0,1.6979328 0,1.6979328 z"
       copytype="single_stretched"
       prop_scale="1"
       scale_y_rel="false"
       spacing="0"
       normal_offset="0"
       tang_offset="0"
       prop_units="false"
       vertical_pattern="false"
       fuse_tolerance="0" />
    <inkscape:path-effect
       effect="skeletal"
       id="path-effect4086"
       is_visible="true"
       pattern="M 0,0 1,0"
       copytype="single_stretched"
       prop_scale="1"
       scale_y_rel="false"
       spacing="0"
       normal_offset="0"
       tang_offset="0"
       prop_units="false"
       vertical_pattern="false"
       fuse_tolerance="0" />
    <inkscape:path-effect
       fuse_tolerance="0"
       vertical_pattern="false"
       prop_units="false"
       tang_offset="0"
       normal_offset="0"
       spacing="0"
       scale_y_rel="false"
       prop_scale="1"
       copytype="single_stretched"
       pattern="m -79.300397,132.64786 c 0,0 157.90525,-5.74204 225.264007,-2.18728 13.81995,0.72932 44.91382,2.72975 78.63383,2.97828 40.11846,0.29568 93.14544,-3.93439 169.99329,-3.38977 173.38097,1.2288 243.0916,2.59877 243.0916,2.59877 0,0 -69.82689,4.10283 -243.0983,9.31649 -76.84233,2.31216 -130.29541,-3.45867 -170.34912,-2.87913 -33.98744,0.49175 -64.62945,4.52193 -78.2713,4.7057 -65.969907,0.88871 -225.264007,-11.14306 -225.264007,-11.14306 z"
       is_visible="true"
       id="path-effect3977"
       effect="skeletal" />
    <inkscape:path-effect
       effect="skeletal"
       id="path-effect3901"
       is_visible="true"
       pattern="m 0,3.3483431 c 0,0 157.90525,-5.74204 225.26401,-2.18728 13.81995,0.72932 44.91382,2.72975 78.63383,2.97828 40.11846,0.29568 93.14544,-3.93438999 169.99329,-3.38976999 173.38097,1.22879999 243.0916,2.59876999 243.0916,2.59876999 0,0 -69.82689,4.10283 -243.0983,9.3164899 C 397.0421,14.976993 343.58902,9.2061631 303.53531,9.7857031 269.54787,10.277453 238.90586,14.307633 225.26401,14.491403 159.2941,15.380113 0,3.3483431 0,3.3483431 z"
       copytype="single_stretched"
       prop_scale="1"
       scale_y_rel="false"
       spacing="0"
       normal_offset="0"
       tang_offset="0"
       prop_units="false"
       vertical_pattern="false"
       fuse_tolerance="0" />
    <inkscape:path-effect
       effect="skeletal"
       id="path-effect3837"
       is_visible="true"
       pattern="m 0,3.3483431 c 0,0 157.90525,-5.74204 225.26401,-2.18728 13.81995,0.72932 44.91382,2.72975 78.63383,2.97828 40.11846,0.29568 93.14544,-3.93438999 169.99329,-3.38976999 173.38097,1.22879999 243.0916,2.59876999 243.0916,2.59876999 0,0 -69.82689,4.10283 -243.0983,9.3164899 C 397.0421,14.976993 343.58902,9.2061631 303.53531,9.7857031 269.54787,10.277453 238.90586,14.307633 225.26401,14.491403 159.2941,15.380113 0,3.3483431 0,3.3483431 z"
       copytype="single_stretched"
       prop_scale="1"
       scale_y_rel="false"
       spacing="0"
       normal_offset="0"
       tang_offset="0"
       prop_units="false"
       vertical_pattern="false"
       fuse_tolerance="0" />
    <inkscape:path-effect
       effect="skeletal"
       id="path-effect3825"
       is_visible="true"
       pattern="m -69.700526,95.71943 c 0,0 177.786836,-4.34435 275.771636,-2.18195 97.98479,2.1624 273.35395,2.18195 273.35395,2.18195 0,0 -177.38946,5.38646 -273.35395,5.92707 -95.96449,0.5406 -275.771636,-5.92707 -275.771636,-5.92707 z"
       copytype="single_stretched"
       prop_scale="1"
       scale_y_rel="false"
       spacing="0"
       normal_offset="0"
       tang_offset="0"
       prop_units="false"
       vertical_pattern="false"
       fuse_tolerance="0" />
    <inkscape:path-effect
       effect="skeletal"
       id="path-effect3817"
       is_visible="true"
       pattern="m -712.15754,132.64786 c 0,0 157.90525,-5.74204 225.26401,-2.18728 13.81995,0.72932 44.91382,2.72975 78.63383,2.97828 40.11846,0.29568 93.14544,-3.93439 169.99329,-3.38977 173.380966,1.2288 243.0915957,2.59877 243.0915957,2.59877 0,0 -69.8268897,4.10283 -243.0982957,9.31649 -76.84233,2.31216 -130.29541,-3.45867 -170.34912,-2.87913 -33.98744,0.49175 -64.62945,4.52193 -78.2713,4.7057 -65.96991,0.88871 -225.26401,-11.14306 -225.26401,-11.14306 z"
       copytype="single_stretched"
       prop_scale="1"
       scale_y_rel="false"
       spacing="0"
       normal_offset="0"
       tang_offset="0"
       prop_units="false"
       vertical_pattern="false"
       fuse_tolerance="0" />
    <inkscape:path-effect
       effect="skeletal"
       id="path-effect3809"
       is_visible="true"
       pattern="m 0,3.3483431 c 0,0 157.90525,-5.74204 225.26401,-2.18728 13.81995,0.72932 44.91382,2.72975 78.63383,2.97828 40.11846,0.29568 93.14544,-3.93438999 169.99329,-3.38976999 173.38097,1.22879999 243.0916,2.59876999 243.0916,2.59876999 0,0 -69.82689,4.10283 -243.0983,9.3164899 C 397.0421,14.976993 343.58902,9.2061631 303.53531,9.7857031 269.54787,10.277453 238.90586,14.307633 225.26401,14.491403 159.2941,15.380113 0,3.3483431 0,3.3483431 z"
       copytype="single_stretched"
       prop_scale="1"
       scale_y_rel="false"
       spacing="0"
       normal_offset="0"
       tang_offset="0"
       prop_units="false"
       vertical_pattern="false"
       fuse_tolerance="0" />
    <inkscape:path-effect
       effect="skeletal"
       id="path-effect3801"
       is_visible="true"
       pattern="m 0,3.3483431 c 0,0 157.90525,-5.74204 225.26401,-2.18728 13.81995,0.72932 44.91382,2.72975 78.63383,2.97828 40.11846,0.29568 93.14544,-3.93438999 169.99329,-3.38976999 173.38097,1.22879999 243.0916,2.59876999 243.0916,2.59876999 0,0 -69.82689,4.10283 -243.0983,9.3164899 C 397.0421,14.976993 343.58902,9.2061631 303.53531,9.7857031 269.54787,10.277453 238.90586,14.307633 225.26401,14.491403 159.2941,15.380113 0,3.3483431 0,3.3483431 z"
       copytype="single_stretched"
       prop_scale="1"
       scale_y_rel="false"
       spacing="0"
       normal_offset="0"
       tang_offset="0"
       prop_units="false"
       vertical_pattern="false"
       fuse_tolerance="0" />
    <inkscape:path-effect
       effect="skeletal"
       id="path-effect3759"
       is_visible="true"
       pattern="m 313.14729,216.93774 c 0,0 177.78684,-4.34435 275.77164,-2.18195 97.98479,2.1624 273.35396,2.18195 273.35396,2.18195 0,0 -177.38947,5.38646 -273.35396,5.92707 -95.96449,0.5406 -275.77164,-5.92707 -275.77164,-5.92707 z"
       copytype="single_stretched"
       prop_scale="1"
       scale_y_rel="false"
       spacing="0"
       normal_offset="0"
       tang_offset="0"
       prop_units="false"
       vertical_pattern="false"
       fuse_tolerance="0" />
    <inkscape:path-effect
       effect="skeletal"
       id="path-effect3801-4"
       is_visible="true"
       pattern="m 77.837781,5.527169 c 0,0 157.905229,-5.74203999 225.263989,-2.18728 13.81995,0.72932 44.91382,2.72975 78.63383,2.97828 40.11846,0.29568 93.14544,-3.93439 169.99329,-3.38977 173.38097,1.2288 243.0916,2.59877 243.0916,2.59877 0,0 -69.82689,4.10283 -243.0983,9.31649 -76.84233,2.31216 -130.29541,-3.45867 -170.34912,-2.87913 -33.98744,0.49175 -64.62945,4.52193 -78.2713,4.7057 C 237.13186,17.558939 77.837781,5.527169 77.837781,5.527169 z"
       copytype="single_stretched"
       prop_scale="1"
       scale_y_rel="false"
       spacing="0"
       normal_offset="0"
       tang_offset="0"
       prop_units="false"
       vertical_pattern="false"
       fuse_tolerance="0" />
  </defs>
  <sodipodi:namedview
     id="base"
     pagecolor="#ffffff"
     bordercolor="#666666"
     borderopacity="1.0"
     inkscape:pageopacity="0.0"
     inkscape:pageshadow="2"
     inkscape:zoom="1"
     inkscape:cx="412.85206"
     inkscape:cy="132.49657"
     inkscape:document-units="px"
     inkscape:current-layer="layer1"
     showgrid="false"
     inkscape:window-width="1680"
     inkscape:window-height="988"
     inkscape:window-x="-8"
     inkscape:window-y="-8"
     inkscape:window-maximized="1"
     fit-margin-top="0"
     fit-margin-left="0"
     fit-margin-right="0"
     fit-margin-bottom="0" />
  <metadata
     id="metadata7">
    <rdf:RDF>
      <cc:Work
         rdf:about="">
        <dc:format>image/svg+xml</dc:format>
        <dc:type
           rdf:resource="http://purl.org/dc/dcmitype/StillImage" />
        <dc:title></dc:title>
      </cc:Work>
    </rdf:RDF>
  </metadata>
  <g
     inkscape:label="Layer 1"
     inkscape:groupmode="layer"
     id="layer1"
     transform="translate(-152.9756,-186.51944)">
    <g
       id="g4341"
       transform="matrix(0.5261387,0,0,0.5261387,-260.25959,399.86782)">
      <path
         style="color:#000000;fill:#fff1f1;fill-opacity:1;fill-rule:nonzero;stroke:none;stroke-width:1px;marker:none;visibility:visible;display:inline;overflow:visible;enable-background:accumulate"
         d="m 1027.5126,-107.51495 -212.50003,-61.07144 c 0,0 -21.42857,-8.57143 -24.28572,-15.71428 -2.85714,-7.14286 1.42858,-61.42858 7.14286,-77.14286 5.71429,-15.71429 42.85714,-57.14286 52.85715,-60 10,-2.85714 138.57143,81.42857 159.99994,104.28571 21.4286,22.85715 40,61.07143 44.2858,75.35715"
         id="path4037"
         inkscape:connector-curvature="0"
         sodipodi:nodetypes="ccssssc" />
      <path
         style="fill:#fff1f1;fill-opacity:1;stroke:none"
         d="m 1148.9286,-179.06639 c 0,0 6.7857,-61.42857 3.9285,-74.28571 -2.8571,-12.85715 -45.7142,-145.71429 -54.2857,-148.57143 -8.5714,-2.85715 -58.5714,20 -67.1428,28.57143 -8.5715,8.57142 -48.57146,75.71428 -48.57146,82.85714 0,7.14286 116.78566,107.14285 122.49996,120"
         id="path4035"
         inkscape:connector-curvature="0"
         sodipodi:nodetypes="cssssc" />
      <path
         inkscape:connector-curvature="0"
         id="path4270"
         d="m 1104.176,-402.15625 c -12.5872,0.18833 -57.0581,20.77678 -65.0937,28.8125 -8.5716,8.57142 -48.56264,75.70089 -48.56264,82.84375 0,7.14286 116.78574,107.14285 122.50004,120 l 3.7813,-0.75 c -0.4254,-0.74182 -0.9008,-1.5019 -1.8125,-2.625 -1.1693,-1.44043 -2.7236,-3.1981 -4.5938,-5.1875 -3.7402,-3.9788 -8.7488,-8.94643 -14.625,-14.59375 -11.7522,-11.29464 -26.8883,-25.21875 -41.8437,-38.96875 -14.9554,-13.75 -29.7433,-27.32589 -40.7813,-37.90625 -5.5189,-5.29018 -10.1079,-9.83817 -13.31244,-13.28125 -1.6023,-1.72154 -2.862,-3.18457 -3.7188,-4.3125 -0.8568,-1.12793 -1.3125,-1.92857 -1.3125,-2.375 0,-0.89286 0.6395,-2.71373 1.75,-5.25 1.1105,-2.53627 2.7143,-5.78348 4.65634,-9.5 3.8839,-7.43304 9.1517,-16.75 14.6874,-26.125 5.5358,-9.375 11.3259,-18.79464 16.2813,-26.40625 2.4777,-3.8058 4.7422,-7.17355 6.6563,-9.84375 1.914,-2.6702 3.491,-4.64732 4.5624,-5.71875 1.0715,-1.07143 2.7646,-2.37277 4.9688,-3.8125 2.2042,-1.43973 4.8929,-3.03571 7.9062,-4.6875 6.0268,-3.30357 13.3661,-6.87946 20.6876,-10.09375 3.6607,-1.60714 7.3136,-3.1183 10.8124,-4.46875 3.4989,-1.35045 6.8304,-2.53125 9.8438,-3.46875 3.0134,-0.9375 5.702,-1.6317 7.9062,-2 0.2579,-0.0431 0.4433,-0.0284 0.6876,-0.0625 -0.5325,-0.17293 -1.2047,-0.23112 -2.0313,-0.21875 z"
         style="color:#000000;fill:#ffd6d6;fill-opacity:1;fill-rule:nonzero;stroke:none;stroke-width:1px;marker:none;visibility:visible;display:inline;overflow:visible;enable-background:accumulate" />
      <path
         sodipodi:nodetypes="cssccccssc"
         inkscape:connector-curvature="0"
         id="path4064"
         d="m 821.21166,-297.28125 c -9.9011,11.57462 -18.7543,23.74603 -21.3126,30.78125 -5.7143,15.71428 -10.0133,70.01339 -7.1562,77.15625 2.8571,7.14285 24.2812,15.71875 24.2812,15.71875 l 206.94424,69.14372 4.9063,-6.09375 -206.78794,-69.11247 c 0,0 -21.4242,-8.5759 -24.2813,-15.71875 -2.8571,-7.14286 1.4107,-61.44197 7.125,-77.15625 2.1131,-5.8112 8.5342,-15.12553 16.2813,-24.71875 z"
         style="color:#000000;fill:#ffd6d6;fill-opacity:1;fill-rule:nonzero;stroke:none;stroke-width:1px;marker:none;visibility:visible;display:inline;overflow:visible;enable-background:accumulate" />
      <path
         sodipodi:nodetypes="ccssssc"
         inkscape:original-d="m 1027.5126,-107.51495 -212.50003,-61.07144 c 0,0 -21.42857,-8.57143 -24.28572,-15.71428 -2.85714,-7.14286 1.42858,-61.42858 7.14286,-77.14286 5.71429,-15.71429 42.85714,-57.14286 52.85715,-60 10,-2.85714 138.57143,81.42857 159.99994,104.28571 21.4286,22.85715 40,61.07143 44.2858,75.35715"
         inkscape:path-effect="#path-effect3837"
         inkscape:connector-curvature="0"
         id="path3788"
         d="m 1026.4361,-103.76921 c 0,0 -36.90833,-9.11837 -81.54284,-20.9261 -44.63452,-11.80772 -96.99783,-26.30578 -127.54996,-36.92998 -1.29478,-0.45025 -2.75525,-0.96215 -4.36757,-1.52829 -3.22289,-1.71765 -7.04365,-3.76012 -11.33331,-6.03819 -2.72994,-1.62625 -5.70875,-3.52719 -8.68958,-5.95373 -1.17526,-0.95491 -2.40251,-2.07042 -3.58492,-3.4169 -0.9222,-0.98893 -1.86769,-2.35537 -2.59506,-4.15667 -0.3937,-1.14411 -0.56594,-2.09368 -0.62257,-2.80749 0,0 0,0 0,0 -0.13124,-1.12441 -0.18897,-2.2029 -0.21389,-3.22832 -0.0732,-2.81537 0.0189,-5.63953 0.15848,-8.4556 0.3561,-7.29594 1.03783,-14.9336 1.82777,-22.72224 0.2041,-2.01747 0.41604,-4.0489 0.63753,-6.09043 0.62786,-5.78705 1.30269,-11.85901 2.17309,-18.24425 0.45739,-3.35886 0.97314,-6.82535 1.65082,-10.39296 0.48055,-2.56392 1.05241,-5.26987 1.96653,-8.06284 0.94289,-2.79317 2.23791,-5.3632 3.57805,-7.75426 1.71678,-3.0966 3.63041,-6.13427 5.64897,-9.14162 4.46206,-6.65322 9.54063,-13.36488 15.17403,-20.14147 4.85197,-5.84649 10.16678,-11.85387 16.29793,-17.70999 2.1577,-2.06773 4.50352,-4.18227 7.16569,-6.19422 1.43319,-1.22185 3.60498,-2.69591 6.79456,-3.78833 1.94299,-0.40099 3.25582,-0.42944 3.87793,-0.21725 1.17458,0.17212 2.14958,0.4112 2.92313,0.6564 2.37176,0.71923 4.51274,1.60888 6.45366,2.48595 6.08179,2.71463 12.00929,5.9288 17.90454,9.2765 4.9139,2.78534 9.89373,5.7263 14.94178,8.82234 12.39191,7.60013 23.89926,15.12319 34.70811,22.31647 19.35424,12.87598 36.51448,24.90442 51.56944,36.08422 7.15842,5.31487 13.87691,10.46691 20.06526,15.54644 2.5909,2.12614 5.1095,4.25971 7.5177,6.43132 1.8757,1.68633 3.7476,3.45387 5.5132,5.36998 7.1471,7.81887 12.7084,15.54814 17.3388,22.6953 4.6304,7.14716 8.3203,13.72313 11.422,19.5359 4.372,8.16629 7.544,14.98181 9.8584,20.34825 1.0702,2.47204 1.9794,4.66377 2.7164,6.55798 0.737,1.89421 1.3051,3.49017 1.7348,4.77128 0.8596,2.5622 1.1906,3.85142 1.1906,3.85142 0,0 -0.4303,-1.26401 -1.4686,-3.75369 -0.5191,-1.24484 -1.1962,-2.79184 -2.0595,-4.62356 -0.8633,-1.83172 -1.9159,-3.94682 -3.1472,-6.33808 -2.6591,-5.182 -6.2451,-11.74266 -11.0691,-19.57157 -3.4337,-5.57928 -7.4704,-11.87026 -12.4076,-18.63238 -4.9371,-6.76211 -10.7663,-14.00723 -18.0406,-21.15502 -1.6703,-1.6414 -3.4958,-3.18868 -5.3956,-4.73442 -2.4231,-1.97068 -4.9726,-3.9159 -7.62052,-5.87613 -6.32667,-4.68344 -13.19587,-9.43439 -20.54889,-14.3724 -15.4607,-10.38202 -33.01857,-21.548 -52.7851,-33.5405 -11.05628,-6.70669 -22.76103,-13.70275 -35.25251,-20.71263 -5.08384,-2.8529 -10.0463,-5.61441 -14.90085,-8.27648 -5.87318,-3.21568 -11.45674,-6.26412 -16.94864,-8.79091 -1.8054,-0.82027 -3.42761,-1.55138 -4.93228,-2.01987 -0.5062,-0.14752 -0.83569,-0.25765 -0.99864,-0.2706 -0.24019,0.0863 0.14326,-0.0148 1.18324,-0.16248 -0.53581,-0.003 -1.51918,0.82225 -3.09878,1.80467 -2.16176,1.50758 -4.25033,3.26197 -6.35929,5.09461 -5.93157,5.17047 -11.32645,10.59008 -16.42895,15.93676 -5.89588,6.18725 -11.2797,12.22798 -16.05101,18.24409 -2.15604,2.72059 -4.16832,5.40015 -5.95449,8.10466 -1.40784,2.15697 -2.67257,4.18969 -3.51374,6.24199 -0.93024,2.22485 -1.60195,4.61814 -2.23363,7.05237 -0.86025,3.33773 -1.54425,6.65548 -2.1374,9.91987 -1.15148,6.34125 -1.93965,12.42394 -2.43202,18.23995 -0.16122,1.90429 -0.29593,3.80056 -0.40779,5.68514 -0.45907,7.75976 -0.53277,15.28406 -0.15742,22.32213 0.14762,2.74221 0.35092,5.35532 0.71644,7.7986 0.1355,0.89486 0.2797,1.71037 0.47136,2.43221 0,0 0,0 0,0 0.16766,0.55641 0.24342,0.8516 0.32571,0.82745 0.10586,0.18962 0.55957,0.51602 1.12809,1.07168 0.75895,0.65503 1.68774,1.25383 2.69736,1.87952 2.50745,1.54227 5.17145,2.71845 7.75896,3.81979 4.17348,1.53033 7.80677,2.8836 10.80983,4.09081 1.6745,0.38288 3.18034,0.75202 4.50047,1.11126 15.27128,4.15571 35.63149,10.60738 57.61745,17.96081 21.98595,7.35343 45.6007,15.60975 67.34259,23.36024 43.48377,15.50097 79.48915,28.98349 79.48915,28.98349 z"
         style="fill:#000000;fill-opacity:1;stroke:#000000;stroke-width:1px;stroke-linecap:butt;stroke-linejoin:miter;stroke-opacity:1" />
      <path
         sodipodi:nodetypes="cssssc"
         inkscape:original-d="m 1148.9286,-179.06639 c 0,0 6.7857,-61.42857 3.9285,-74.28571 -2.8571,-12.85715 -45.7142,-145.71429 -54.2857,-148.57143 -8.5714,-2.85715 -58.5714,20 -67.1428,28.57143 -8.5715,8.57142 -48.57146,75.71428 -48.57146,82.85714 0,7.14286 116.78566,107.14285 122.49996,120"
         inkscape:path-effect="#path-effect3901"
         inkscape:connector-curvature="0"
         id="path3899"
         d="m 1145.0546,-179.49217 c 0,0 2e-4,-0.004 7e-4,-0.0118 5e-4,-0.008 0,-0.0189 0,-0.0338 0,-1e-5 0,-1e-5 0,-1e-5 0,-0.0297 0,-0.0739 0.01,-0.13262 0,0 0,0 0,0 0.01,-0.11632 0.018,-0.289 0.033,-0.51692 0,0 0,0 0,0 0,0 0,0 0,0 0.029,-0.45004 0.07,-1.11292 0.1236,-1.97484 0,0 0,0 0,0 0.1036,-1.67288 0.2511,-4.09095 0.4286,-7.14398 0,0 0,0 0,0 0.3259,-5.60452 0.7606,-13.33966 1.1586,-22.50234 0,0 0,0 0,0 0.3234,-7.459 0.6562,-15.83206 0.6658,-24.70336 0,0 0,0 0,0 0,-3.25675 -0.031,-6.52725 -0.2227,-9.77012 0,0 0,0 0,0 -0.1607,-2.25883 -0.2506,-4.1996 -0.6777,-5.67408 0,0 0,0 0,0 0,0 0,-1e-5 0,-1e-5 0,0 0,0 0,0 -0.2521,-1.00726 -0.6066,-2.12626 -0.9884,-3.38295 0,0 0,0 0,0 -0.6122,-1.99067 -1.2597,-4.00673 -1.9221,-6.05202 0,0 0,0 0,0 -1.9318,-5.96372 -3.9531,-12.01138 -5.9785,-18.0689 0,0 0,0 0,0 -5.8002,-17.34535 -11.623,-34.60053 -16.4752,-49.63372 0,0 0,0 0,0 -2.7645,-8.56072 -5.1885,-16.38525 -7.1259,-23.09021 -1.5913,-5.50702 -4.1416,-14.60955 -7.8463,-25.50257 -1.7405,-5.10389 -3.6459,-10.54996 -6.1491,-15.95526 -0.7367,-1.5741 -1.4479,-3.06604 -2.2947,-4.36552 -0.2776,-0.41326 -0.4895,-0.74098 -0.6789,-0.93909 -0.2253,-0.12045 -0.071,-0.11789 0.4151,0.14387 0,0 0,0 0,0 -0.069,-0.0863 -0.4191,-0.0819 -0.9835,-0.12514 -0.7364,-0.0167 -1.5546,0.0725 -2.4461,0.19807 -1.6665,0.24087 -3.3628,0.63172 -5.0898,1.10449 -0.7964,0.21804 -1.6039,0.45623 -2.4234,0.70764 -6.4283,1.98339 -13.1014,4.82826 -20.167,8.23101 -6.4161,3.09552 -13.0983,6.62946 -19.9339,10.78715 -2.5067,1.52625 -4.9996,3.10764 -7.392,4.83266 -1.6334,1.20561 -3.0894,2.24592 -4.0257,3.3555 -0.4335,0.47747 -0.8989,1.1258 -1.4683,1.89524 0,0 0,10e-6 0,10e-6 -0.7662,1.05665 -1.5242,2.18142 -2.3022,3.35922 -2.0565,3.11592 -4.0864,6.41194 -6.1763,9.8523 -4.9886,8.21689 -10.139,17.0547 -15.6069,26.51564 -3.6472,6.3136 -7.4293,12.85594 -11.23675,19.70113 -1.14221,2.0535 -2.25507,4.09212 -3.33667,6.11721 -1.66428,3.12254 -3.22728,6.11602 -4.54639,9.05687 -0.44621,1.00492 -0.83596,1.89523 -1.10796,2.69589 -0.1428,0.74804 -0.2741,0.74549 -0.14834,0.0226 -0.32083,-1.83581 -0.41246,-2.5347 -0.46052,-2.10428 0,0 0,0 0,0 0.0192,0.0785 0.19474,0.30569 0.47277,0.70358 0.90362,1.23539 2.04024,2.49243 3.27342,3.85586 4.20734,4.61925 8.60984,8.9319 12.92704,13.16203 7.4787,7.32271 14.6158,14.11832 21.3389,20.47773 6.7232,6.35941 13.0334,12.28161 18.8997,17.81747 8.8383,8.3401 16.7022,15.76506 23.5823,22.3596 6.8801,6.59454 12.7803,12.35497 17.759,17.30507 0,0 0,0 0,0 3.1242,3.1053 5.9041,5.90404 8.3242,8.41056 2.42,2.50651 4.4822,4.71911 6.2075,6.62698 1.9638,2.16874 3.5327,4.02088 4.6735,5.48272 0.6519,0.83312 1.1975,1.59479 1.6117,2.22086 0.3653,0.53014 0.6749,1.08533 0.8736,1.47807 0.1988,0.39274 0.2956,0.62088 0.2956,0.62088 0,0 -0.1095,-0.2233 -0.331,-0.60219 -0.2214,-0.37888 -0.5626,-0.90884 -0.9686,-1.40734 -0.4589,-0.58955 -1.0576,-1.30026 -1.773,-2.07348 -1.2524,-1.35688 -2.9549,-3.06058 -5.0845,-5.05903 -1.8702,-1.75748 -4.0946,-3.79271 -6.6932,-6.09821 -2.5987,-2.30549 -5.5733,-4.87918 -8.9157,-7.74783 0,0 0,0 0,0 -5.324,-4.57035 -11.607,-9.89703 -18.9045,-16.01616 -7.2974,-6.11914 -15.6126,-13.02653 -24.9479,-20.8334 -6.1885,-5.17512 -12.8399,-10.7284 -19.9327,-16.72418 -7.0927,-5.99579 -14.6277,-12.43298 -22.54847,-19.42197 -4.5502,-4.01241 -9.29219,-8.21494 -14.00384,-12.89511 -1.35434,-1.3378 -2.7804,-2.79252 -4.16545,-4.48064 -0.41837,-0.49699 -0.89556,-1.13375 -1.38432,-1.94529 0,-1e-5 -10e-6,-2e-5 -2e-5,-3e-5 -0.32154,-0.18784 -0.69507,-1.21235 -0.93716,-3.11227 0.0684,-1.70496 0.35313,-2.87217 0.60638,-3.46972 0.39894,-1.3277 0.85793,-2.5558 1.31074,-3.69323 1.34379,-3.39739 2.87337,-6.71056 4.42987,-9.97732 1.01851,-2.14037 2.06682,-4.29176 3.1427,-6.45478 3.58023,-7.19798 7.29874,-13.942 10.99491,-20.31858 5.53806,-9.55845 11.11416,-18.36581 16.69926,-26.45261 2.3297,-3.37446 4.6858,-6.66321 7.1219,-9.80682 0.919,-1.18677 1.8719,-2.37994 2.8782,-3.55484 0,0 0,0 0,-10e-6 0.6802,-0.80338 1.477,-1.69744 2.4375,-2.60823 2.0564,-1.87425 4.1147,-3.15874 5.9423,-4.20187 2.8569,-1.68292 5.6861,-3.12729 8.4352,-4.45589 7.5048,-3.63149 14.6919,-6.56813 21.4596,-9.19822 7.442,-2.89637 14.4617,-5.44743 21.1388,-7.57459 0.9428,-0.30167 1.8872,-0.59788 2.8347,-0.87991 1.7551,-0.52244 3.5429,-0.99774 5.3754,-1.36786 1.0348,-0.21179 2.1411,-0.38485 3.3216,-0.44933 0.8188,-0.0733 1.8424,-0.0235 3.0271,0.29661 0,0 0,0 0,0 1.094,0.44173 1.7783,0.92527 2.0788,1.30854 0.6174,0.59393 1.1034,1.17698 1.494,1.69891 1.2546,1.64504 2.2733,3.31619 3.1968,4.88048 3.2528,5.47587 6.0025,10.81987 8.5171,15.64566 5.4461,10.44376 9.7941,19.01644 11.8483,24.40586 2.4911,6.5354 5.1349,14.38183 7.8401,23.05593 0,0 0,0 0,0 4.7168,15.11508 9.5991,32.83243 14.0632,50.75807 0,0 0,0 0,0 1.553,6.23592 3.0637,12.50848 4.4603,18.71949 0,0 0,0 0,0 0.4781,2.126 0.9461,4.25347 1.3823,6.37899 0.2611,1.27201 0.5358,2.59193 0.7431,3.95786 0,0 0,0 0,0 0,0 0,1e-5 0,1e-5 0,0 0,0 0,0 0.385,2.59311 0.2999,5.03438 0.1868,7.32727 -0.1563,3.51078 -0.4801,6.91915 -0.8429,10.22917 0,0 0,0 0,0 -0.9887,9.02809 -2.2949,17.39735 -3.5141,24.81329 0,0 0,0 0,0 -1.4987,9.11334 -2.9171,16.76794 -3.9741,22.30677 0,0 0,0 0,0 -0.5756,3.01626 -1.0463,5.40248 -1.3761,7.05227 0,0 0,0 0,0 -0.1698,0.8499 -0.3022,1.50325 -0.3927,1.94669 0,0 0,0 0,0 0,0 0,0 0,0 -0.046,0.22455 -0.081,0.39465 -0.1043,0.50921 0,0 0,0 0,0 -0.012,0.0578 -0.021,0.10132 -0.027,0.1306 0,0 0,0 0,0 -0,0.0147 -0.01,0.0258 -0.01,0.0333 -0,0.008 -0,0.0117 -0,0.0117 z"
         style="fill:#000000;fill-opacity:1;stroke:#000000;stroke-width:1px;stroke-linecap:butt;stroke-linejoin:miter;stroke-opacity:1" />
      <path
         sodipodi:nodetypes="cssccsssssssssssssscscccssscccccscscscc"
         inkscape:connector-curvature="0"
         id="path3986"
         d="m 1054.424,-163.67857 c -36.2547,19.32878 -76.69839,66.118799 -81.73209,126.52232 -6.1648,73.977869 98.23679,141.71256 164.37499,136.625 30.5811,-2.352392 59.7196,-14.387491 83.5,-33.375 -1.6377,0.915165 -3.4944,-27.148543 -4.875,-26.402582 -3.6605,1.977918 -7.4173,3.770575 -11.2416,5.368382 -3.8243,1.597808 -7.7217,2.999154 -11.6809,4.196604 -3.9592,1.197449 -7.9775,2.193479 -12.0427,2.970323 -4.0653,0.776845 -8.1848,1.3263 -12.327,1.662291 -3.4185,0.27728 -6.96,0.313846 -10.5956,0.109003 -3.6356,-0.204843 -7.3712,-0.649441 -11.1641,-1.308032 -3.7928,-0.658592 -7.6359,-1.532098 -11.5258,-2.616065 -3.89,-1.083967 -7.8317,-2.361375 -11.7585,-3.842345 -3.9269,-1.48097 -7.8548,-3.164525 -11.7585,-5.014124 -3.9037,-1.849598 -7.783,-3.887044 -11.6034,-6.0769 -3.8204,-2.189855 -7.5646,-4.528935 -11.2417,-7.030673 -3.6769,-2.501739 -7.2771,-5.144698 -10.7506,-7.929946 -3.4734,-2.785248 -6.8171,-5.707081 -10.027,-8.747466 -3.2098,-3.0403855 -6.288,-6.2160865 -9.1741,-9.4832347 -2.8861,-3.2671482 -5.5865,-6.6444606 -8.0889,-10.1099998 -2.5022,-3.4655395 -4.7899,-7.0194575 -6.8482,-10.6550135 -2.0584,-3.635556 -3.8986,-7.341074 -5.4529,-11.118274 -0.7771,-1.8886 -1.4792,-3.80395 -2.119,-5.722642 -0.64,-1.918691 -1.2106,-3.831907 -1.7058,-5.777142 -0.495,-1.945236 -0.9235,-3.917912 -1.2662,-5.886146 -0.3427,-1.968234 -0.5924,-3.952962 -0.7753,-5.940647 -0.1829,-1.987684 -0.2946,-3.964308 -0.3101,-5.967897 -0.016,-2.003589 0.047,-4.033703 0.2067,-6.049649 0.3187,-4.031893 0.818,-7.973959 1.4731,-11.854043 0.6551,-3.880085 1.4683,-7.699381 2.4292,-11.418032 0.9609,-3.718652 2.0719,-7.352677 3.3078,-10.90027 1.236,-3.54759 2.6029,-6.98834 4.0833,-10.35526 1.4803,-3.36691 3.0869,-6.66089 4.7809,-9.83749 1.6939,-3.1766 3.4725,-6.23405 5.3495,-9.21073 1.8768,-2.97667 3.837,-5.87134 5.8662,-8.63846 2.0292,-2.76712 4.1291,-5.40926 6.2798,-7.9572 2.1508,-2.54793 4.3483,-4.98405 6.5899,-7.30318 2.2417,-2.31912 4.5207,-4.54121 6.8225,-6.62191 1.201,-1.08554 -26.4631,-3.13542 -24.9989,-4.30357 z"
         style="fill:#295f9a;fill-opacity:1;stroke:none" />
      <path
         sodipodi:nodetypes="ccscscscccccssscccscssssssssssssssccscc"
         inkscape:connector-curvature="0"
         id="path3975"
         d="m 1054.9598,-165.375 c -1.4642,1.16815 -2.954,2.25514 -4.4062,3.5 -2.7834,2.38606 -5.1822,7.43427 -7.8929,10.09375 -2.7107,2.65948 -5.368,5.45313 -7.9688,8.375 -2.6007,2.92187 -5.1399,5.95178 -7.5937,9.125 -2.4538,3.17322 -4.8241,6.49272 -7.0937,9.90625 -2.2697,3.41353 -4.4204,6.9197 -6.4688,10.5625 -2.0484,3.6428 -3.9912,7.42021 -5.7812,11.28125 -1.7901,3.861041 -3.443,7.80676 -4.9376,11.875 -1.4945,4.06824 -2.83799,8.235597 -3.99999,12.5 -1.1619,4.264403 -2.1453,8.644222 -2.9374,13.09375 -0.7922,4.449528 -1.396,8.970134 -1.7813,13.59375 -0.1926,2.311808 -0.2688,4.639863 -0.25,6.9375 0.0188,2.297637 0.1538,4.564352 0.375,6.84375 0.2212,2.279398 0.5231,4.555407 0.9375,6.8125 0.4144,2.257093 0.9326,4.51928 1.5312,6.75 0.5987,2.23072 1.2888,4.42472 2.0626,6.625 0.7737,2.20028 1.62269,4.396728 2.56239,6.5625 1.8795,4.3315445 4.1048,8.5808873 6.5938,12.75 2.489,4.1691127 5.2554,8.244606 8.2812,12.21875 3.0259,3.974144 6.2913,7.847113 9.7813,11.59375 3.49,3.746637 7.2123,7.388406 11.0937,10.875 3.8815,3.486594 7.9248,6.837237 12.125,10.03125 4.2003,3.194013 8.5537,6.224855 13,9.09375 4.4464,2.868895 8.974,5.55126 13.5938,8.0625 4.6198,2.51124 9.3108,4.847703 14.0312,6.96875 4.7205,2.121047 9.4703,4.051682 14.2188,5.75 4.7485,1.698318 9.5149,3.163199 14.2188,4.40625 4.7038,1.243051 9.351,2.244753 13.9374,3 4.5865,0.755247 9.1037,1.265094 13.5,1.5 4.3964,0.234906 8.6789,0.192973 12.8126,-0.125 5.0089,-0.385302 9.9904,-1.015395 14.9062,-1.90625 4.9158,-0.890855 9.7749,-2.033062 14.5625,-3.40625 4.7876,-1.373188 9.5005,-2.980197 14.125,-4.8125 4.6245,-1.832303 9.1673,-3.888051 13.5937,-6.15625 1.6695,-0.855438 3.2373,-1.897335 4.875,-2.8125 38.5402,-30.772462 62.9686,-79.876341 56.25,-136.15625 -9.0706,-75.98387 -108.2521,-135.04286 -198.6695,-104.21875 -7.1643,1.50826 -15.0401,4.56254 -23.1876,8.90625 z"
         style="color:#000000;fill:#5a7997;fill-opacity:1;fill-rule:nonzero;stroke:none;stroke-width:0.69999999;marker:none;visibility:visible;display:inline;overflow:visible;enable-background:accumulate" />
      <path
         sodipodi:nodetypes="scccccssssssssssssssccccscssccsscccss"
         inkscape:connector-curvature="0"
         id="path4005"
         d="m 1128.6965,-182.625 c -16.9177,-0.0595 -34.203,2.56423 -51.1562,8.34375 -7.1643,1.50826 -15.04,4.56254 -23.1876,8.90625 -1.4641,1.16815 -2.954,2.25514 -4.4062,3.5 -11.2233,6.85059 -25.0128,15.63546 10.3125,0.0625 3.8829,-1.49507 7.6366,-2.62087 11.2187,-3.375 2.8256,-0.96325 5.6604,-1.83507 8.5,-2.625 2.8397,-0.78993 5.6836,-1.50395 8.5313,-2.125 5.6954,-1.24211 11.4023,-2.15667 17.0937,-2.75 5.6915,-0.59333 11.3921,-0.86357 17.0313,-0.84375 5.6392,0.0198 11.2425,0.34015 16.7813,0.9375 5.5387,0.59735 11.0162,1.48575 16.4062,2.625 5.39,1.13925 10.6821,2.54197 15.875,4.1875 5.1929,1.64553 10.2712,3.50882 15.2188,5.625 4.9475,2.11618 9.7523,4.48004 14.4062,7.03125 4.6539,2.55121 9.1567,5.29938 13.4688,8.25 4.312,2.95062 8.4531,6.09185 12.375,9.40625 3.9218,3.3144 7.6103,6.79494 11.0937,10.4375 3.4834,3.64256 6.7534,7.4399 9.75,11.375 2.9966,3.9351 5.7259,8.02674 8.1875,12.21875 2.4616,4.192007 4.6529,8.492957 6.5312,12.90625 1.8784,4.413293 3.4408,8.932296 4.6876,13.53125 0.6233,2.299477 1.1685,4.629537 1.625,6.96875 0.4564,2.339213 0.8415,4.688004 1.125,7.0625 0.4199,3.517494 0.7255,7.010042 0.9062,10.46875 0.1807,3.458708 0.2376,6.886775 0.1875,10.28125 -0.05,3.394475 -0.2273,6.737705 -0.5,10.0625 -0.2727,3.324795 -0.6381,6.625332 -1.125,9.875 -0.4869,3.249668 -1.0885,6.455906 -1.7813,9.625 -0.6927,3.1690936 -1.4846,6.2919275 -2.375,9.375 -0.8903,3.0830725 -1.8891,6.1333955 -2.9687,9.125 -1.0796,2.991604 -2.2394,5.94906 -3.5,8.84375 -1.2606,2.89469 -2.598,5.738922 -4.0313,8.53125 -1.4332,2.792328 -2.9649,5.502981 -4.5624,8.1875 -0.3784,0.635771 -0.8003,1.245465 -1.1876,1.875 20.6974,-28.7859972 31.7897,-65.222085 27,-105.34375 -7.3698,-61.73689 -74.2211,-112.30484 -147.5312,-112.5625 z"
         style="color:#000000;fill:#c7d6e5;fill-opacity:1;fill-rule:nonzero;stroke:none;stroke-width:0.69999999;marker:none;visibility:visible;display:inline;overflow:visible;enable-background:accumulate" />
      <path
         inkscape:original-d="m 1081.3681,-171.76878 c 90.4174,-30.82411 189.2311,25.73571 198.3018,101.719576 10.8641,91.00626 -59.5932,163.367779 -139.7359,169.532619 -66.1382,5.087565 -170.56004,-62.6757 -164.39524,-136.653569 6.1648,-73.977856 66.78554,-126.378846 105.82934,-134.598626 z"
         inkscape:path-effect="#path-effect3817"
         style="fill:#000000;fill-opacity:1;stroke:#000000;stroke-width:0.69999999;stroke-linecap:butt;stroke-linejoin:miter;stroke-miterlimit:4;stroke-opacity:1;stroke-dasharray:none"
         d="m 1080.1105,-175.45767 c 0,0 1.7088,-0.66265 4.9282,-1.73796 3.2194,-1.07531 7.9573,-2.55391 14.046,-3.98882 6.0887,-1.43492 13.5346,-2.81827 22.0875,-3.63513 8.5529,-0.81686 18.2151,-1.06058 28.5869,-0.25721 10.074,0.77937 20.8102,2.53379 31.7192,5.51928 10.909,2.98548 21.9852,7.20412 32.6761,12.71926 9.3212,4.79739 18.3656,10.60698 26.6904,17.34075 8.3247,6.73377 15.9241,14.39109 22.4419,22.7605 6.613,8.48412 12.0038,17.75649 15.9261,27.2536 3.9223,9.497112 6.373,19.213106 7.3925,28.606263 1.427,13.486025 0.8772,25.96581 -0.707,36.49829 -1.0684,7.103693 -3.1819,17.634869 -7.616,29.8228034 -3.0181,8.2789394 -7.1083,17.2771576 -12.4258,26.3529576 -5.3175,9.075801 -11.8621,18.222394 -19.5175,26.829412 0,1e-6 0,3e-6 0,4e-6 -2.1847,2.456255 -4.4568,4.869665 -6.8093,7.22958 -5.4493,5.466589 -11.4815,10.871142 -18.2246,16.056561 -6.743,5.185419 -14.1983,10.153176 -22.4703,14.652808 -8.1414,4.429736 -17.0805,8.400933 -26.8373,11.579783 -9.7567,3.178848 -20.3342,5.566788 -31.6506,6.705638 -8.9511,0.88173 -18.274,0.51708 -27.6848,-0.87619 -9.6552,-1.42094 -19.4842,-3.88211 -29.3283,-7.297917 -15.7239,-5.449355 -31.6874,-13.270592 -47.0827,-23.829624 -3.2712,-2.24362 -6.4452,-4.553792 -9.5216,-6.921047 -8.8815,-6.805916 -17.0127,-14.174339 -24.1699,-21.995974 -7.15729,-7.821635 -13.3421,-16.096382 -18.43781,-24.717315 -5.2238,-8.85119 -9.19767,-18.1324436 -11.66946,-27.5416458 -2.58874,-9.8711252 -3.41009,-19.8293922 -2.56438,-29.3120312 0.9121,-10.040892 2.7855,-19.512599 5.30246,-28.3328 2.51696,-8.820201 5.67825,-16.990127 9.2313,-24.489113 4.09471,-8.641553 8.68072,-16.397353 13.45272,-23.344103 4.77197,-6.94675 9.73147,-13.08549 14.66007,-18.51655 6.1184,-6.7498 12.2026,-12.43376 17.998,-17.20731 5.7955,-4.77356 11.3035,-8.6405 16.3504,-11.79993 5.251,-3.30655 10.0621,-5.86921 14.2644,-7.80372 4.2023,-1.9345 7.797,-3.25367 10.6907,-4.17969 2.8936,-0.92603 5.0871,-1.46595 6.5453,-1.80091 1.4582,-0.33495 2.1819,-0.46737 2.1819,-0.46737 0,0 -0.7165,0.17469 -2.1535,0.58913 -1.4371,0.41444 -3.5947,1.07108 -6.4219,2.14204 -2.8271,1.07095 -6.3234,2.56326 -10.3843,4.68586 -4.0609,2.12259 -8.6857,4.88828 -13.7223,8.39505 -4.8346,3.35459 -10.0828,7.41575 -15.5661,12.36272 -5.4833,4.94697 -11.2026,10.78362 -16.9112,17.63999 -4.5948,5.51726 -9.1832,11.70747 -13.549,18.64691 -4.36578,6.93945 -8.5104,14.629252 -12.13588,23.114734 -3.14389,7.358324 -5.88265,15.322421 -7.98036,23.849275 -2.09772,8.526854 -3.55508,17.617726 -4.07856,27.163629 -0.47135,8.570568 0.6069,17.545494 3.24249,26.396013 2.51747,8.4618397 6.45781,16.8188915 11.53463,24.844218 4.96115,7.850765 10.97078,15.359417 17.91048,22.457816 6.9396,7.098399 14.8108,13.786382 23.3889,20.003787 2.982,2.153537 6.0512,4.24919 9.2067,6.278045 14.8217,9.52994 29.8271,16.782915 44.5415,22.078332 9.1842,3.30142 18.227,5.81331 27.0691,7.409183 8.6173,1.547236 16.9943,2.266428 24.9816,1.854611 10.5505,-0.532069 20.5762,-2.18771 29.9497,-4.633286 9.3735,-2.445575 18.0964,-5.683602 26.099,-9.469858 8.2275,-3.893651 15.7035,-8.367163 22.4123,-13.205762 6.7088,-4.8386 12.6511,-10.043737 17.8288,-15.451649 2.1193,-2.213528 4.1428,-4.487042 6.0655,-6.805357 0,-1e-6 0,-3e-6 0,-5e-6 7.1246,-8.590835 12.8275,-17.803312 17.1502,-26.811318 4.3227,-9.0080068 7.2728,-17.80331291 9.2387,-25.7245066 1.4621,-5.8722204 2.3898,-11.2719194 3.0357,-16.0040644 0.6458,-4.732145 1.0123,-8.798724 1.3326,-12.056304 0.9456,-9.615582 1.272,-20.987482 0.023,-33.38058 -0.7846,-8.052533 -2.7634,-16.515404 -6.018,-24.970392 -3.2545,-8.454991 -7.7819,-16.896831 -13.4116,-24.810991 -5.5629,-7.8126 -12.1868,-15.1345 -19.577,-21.747 -7.3902,-6.61249 -15.5415,-12.51382 -24.0554,-17.56647 -9.7542,-5.78269 -20.006,-10.45091 -30.2392,-13.98908 -10.2333,-3.53818 -20.4424,-5.94664 -30.1366,-7.3973 -9.961,-1.49059 -19.3795,-1.95637 -27.8078,-1.79387 -8.4283,0.1625 -15.8674,0.94675 -21.9997,1.88479 -6.1322,0.93805 -10.9624,2.02091 -14.2571,2.82579 -3.2946,0.80488 -5.0597,1.32074 -5.0597,1.32074 z"
         id="path3784"
         inkscape:connector-curvature="0"
         sodipodi:nodetypes="csssc" />
      <path
         sodipodi:nodetypes="sssss"
         inkscape:connector-curvature="0"
         id="path3973"
         d="m 1216.8767,-161.98911 c 58.4106,-4.68284 79.3838,20.73219 83.8427,58.08378 5.3405,44.736173 -43.4365,82.327423 -82.8325,85.357883 -32.5117,2.50091 -69.7005,-32.82996 -66.6701,-69.19545 3.0305,-36.365483 46.109,-72.678793 65.6599,-74.246213 z"
         style="fill:#d9dee6;fill-opacity:1;stroke:none" />
      <path
         inkscape:connector-curvature="0"
         id="path4145"
         d="m 1223.451,-161.44643 c -3.3633,0.062 -6.8494,0.23857 -10.5,0.53125 -12.8654,1.03143 -35.8745,17.13812 -51,38.375 2.0513,-2.43693 4.0578,-4.92741 6.25,-7.15625 3.398,-3.45499 6.9367,-6.6565 10.4687,-9.5 3.532,-2.8435 7.0511,-5.341 10.4687,-7.4375 3.4177,-2.0965 6.7264,-3.78602 9.7813,-5 1.5275,-0.60699 2.9848,-1.07655 4.375,-1.4375 1.3902,-0.36095 2.7156,-0.62079 3.9375,-0.71875 3.6507,-0.29268 7.168,-0.43803 10.5312,-0.5 3.3633,-0.062 6.5702,-0.0349 9.6563,0.125 3.0861,0.15987 6.0558,0.43966 8.875,0.8125 2.8192,0.37284 5.5,0.86056 8.0625,1.4375 2.5625,0.57694 4.9965,1.22783 7.3125,2 2.316,0.77217 4.5141,1.66646 6.5937,2.625 2.0797,0.95854 4.0214,1.98896 5.875,3.125 1.8537,1.13604 3.6123,2.35158 5.25,3.65625 1.6378,1.30467 3.1617,2.69182 4.5938,4.15625 1.4321,1.46443 2.7633,3.00967 4,4.625 1.2367,1.61533 2.386,3.30515 3.4375,5.0625 1.0515,1.75735 1.9985,3.57824 2.875,5.46875 0.8765,1.89051 1.6945,3.86019 2.4063,5.875 0.7117,2.01481 1.3178,4.08852 1.875,6.21875 1.1142,4.26046 1.9426,8.7373 2.5,13.406251 0.3337,2.796011 0.4485,5.579002 0.375,8.3125 -0.074,2.733498 -0.3315,5.436152 -0.7813,8.09375 -0.4498,2.657598 -1.0799,5.275438 -1.875,7.84375 -0.7951,2.568312 -1.7657,5.065611 -2.875,7.53125 -1.1093,2.465639 -2.3574,4.900421 -3.75,7.25 -1.2253,2.067332 -2.5779,4.06351 -4,6.03125 12.9934,-14.519305 20.9544,-32.674314 18.625,-52.187501 -4.1802,-35.01712 -22.8944,-59.55458 -73.3437,-58.625 z"
         style="color:#000000;fill:#ffffff;fill-opacity:1;fill-rule:nonzero;stroke:none;marker:none;visibility:visible;display:inline;overflow:visible;enable-background:accumulate" />
      <path
         inkscape:original-d="m 1214.7084,-157.29549 c 58.4106,-4.68284 80.899,17.70173 85.3579,55.05332 5.3405,44.736176 -43.4365,82.327426 -82.8325,85.357886 -32.5117,2.50091 -69.7005,-32.82996 -66.6701,-69.19545 3.0305,-36.365486 44.5938,-69.648336 64.1447,-71.215756 z"
         inkscape:path-effect="#path-effect3801"
         style="fill:#000000;fill-opacity:1;stroke:#000000;stroke-width:1px;stroke-linecap:butt;stroke-linejoin:miter;stroke-opacity:1"
         d="m 1214.3969,-161.18038 c 0,0 0.9928,-0.14365 2.8367,-0.36878 1.8438,-0.22512 4.5403,-0.53242 7.957,-0.78889 3.4167,-0.25647 7.555,-0.46235 12.2679,-0.404 4.7129,0.0584 10.0011,0.38312 15.6858,1.25493 4.4997,0.68025 9.2674,1.77052 14.0759,3.46973 4.8085,1.69921 9.6554,4.01035 14.2616,7.10632 3.7479,2.56758 7.1975,5.6366 10.2262,9.09105 3.0288,3.45445 5.6357,7.29303 7.7319,11.36272 4.5993,9.01897 6.858,18.60429 7.7598,27.36356 0.6119,5.839984 0.3179,11.423608 -0.5632,16.47296 -0.881,5.049352 -2.3448,9.563511 -4.0437,13.38623 -0.6458,1.453241 -1.4822,3.176906 -2.5385,5.087966 -2.0782,3.747299 -4.975,8.210347 -8.7264,12.824446 -3.7513,4.614098 -8.3606,9.374695 -13.5791,13.884756 0,10e-7 0,2e-6 0,2e-6 -2.9418,2.5486 -6.0751,5.036417 -9.3508,7.419523 -5.6267,4.093453 -11.9322,8.278527 -19.3138,12.123696 -4.3451,2.272363 -9.0897,4.436616 -14.3095,6.255765 -5.2197,1.819149 -10.9165,3.295288 -17.1317,4.073817 -4.4008,0.508214 -8.9819,0.425162 -13.6171,-0.273874 -4.6353,-0.699036 -9.325,-2.015387 -13.8872,-3.931668 -8.5779,-3.564816 -16.9358,-9.103886 -24.1893,-16.545398 -0.4602,-0.469455 -0.9162,-0.946845 -1.3679,-1.432175 -6.6629,-7.160271 -11.7395,-15.162086 -15.1485,-23.402845 -2.0328,-4.894365 -3.4276,-9.900773 -4.1985,-14.8506 -0.7709,-4.949826 -0.9182,-9.843677 -0.4816,-14.562826 0.5634,-5.587905 1.8599,-10.753271 3.5603,-15.486915 1.7003,-4.73364 3.8059,-9.03608 6.082,-12.92287 0,0 0,0 0,-1e-5 2.8659,-4.9241 5.9777,-9.25711 9.1313,-13.10149 3.1536,-3.84437 6.3505,-7.20014 9.4586,-10.15745 3.9895,-3.81087 7.8722,-7.00416 11.52,-9.66405 3.6477,-2.65988 7.0608,-4.78925 10.149,-6.50785 2.9467,-1.69222 5.7248,-3.04526 8.1806,-4.0214 2.4559,-0.97614 4.5908,-1.59041 6.3181,-1.98008 1.7274,-0.38966 3.0483,-0.56308 3.9273,-0.65847 0.879,-0.0954 1.3168,-0.11583 1.3168,-0.11583 0,0 -0.4362,0.0673 -1.3005,0.25073 -0.8643,0.18341 -2.1559,0.48598 -3.8154,1.036 -1.6595,0.55003 -3.6851,1.35583 -5.9853,2.54109 -2.3002,1.18527 -4.8721,2.76492 -7.6271,4.68514 -2.8598,1.95876 -5.9908,4.33316 -9.2986,7.22387 -3.3079,2.8907 -6.7923,6.30056 -10.3389,10.29213 -2.7559,3.10011 -5.5563,6.56283 -8.2627,10.44368 -2.7064,3.88085 -5.3201,8.18006 -7.6312,12.95188 0,0 0,0 0,0 -1.8202,3.76466 -3.4532,7.83789 -4.6805,12.176213 -1.2273,4.338321 -2.0501,8.942404 -2.1624,13.727466 -0.1109,3.99832 0.3068,8.122044 1.2554,12.270641 0.9487,4.148597 2.4288,8.322622 4.4082,12.378602 3.3618,6.872707 8.1872,13.448846 14.2752,19.256537 0.4116,0.392654 0.8252,0.779682 1.2404,1.161157 6.5964,6.026947 13.5695,10.64446 20.5952,13.8229 7.4387,3.327303 14.8684,5.141994 21.7724,4.97334 5.4233,-0.101953 10.6198,-0.807884 15.5342,-1.884572 4.9145,-1.076688 9.5458,-2.52686 13.842,-4.20502 7.3764,-2.89364 13.7624,-6.498729 18.988,-10.601811 2.9695,-2.331566 5.6808,-4.874029 8.1026,-7.510763 0,-10e-7 0,-2e-6 0,-2e-6 4.4086,-4.811773 7.8275,-9.931714 10.292,-14.650491 2.4646,-4.718777 3.9886,-9.028578 5.0546,-12.433979 0.5395,-1.721658 0.9688,-3.216466 1.3693,-4.434664 1.0444,-3.176041 2.0546,-6.803245 2.7367,-10.802715 0.6821,-3.99947 1.0338,-8.371178 0.7359,-12.944859 -0.5382,-7.73472 -1.7273,-15.94759 -4.8314,-23.59866 -2.7173,-6.78076 -7.0827,-13.19611 -12.7313,-18.12782 -3.4733,-3.05799 -7.4052,-5.57527 -11.4895,-7.6339 -4.0843,-2.05864 -8.3172,-3.65974 -12.4222,-4.90558 -5.206,-1.57939 -10.2142,-2.632 -14.7581,-3.37381 -4.544,-0.74182 -8.6231,-1.17478 -12.0201,-1.46053 -3.397,-0.28576 -6.1133,-0.42443 -7.9752,-0.50855 -1.862,-0.0841 -2.8717,-0.11365 -2.8717,-0.11365 z"
         id="path3782"
         inkscape:connector-curvature="0"
         sodipodi:nodetypes="sssss" />
      <path
         inkscape:connector-curvature="0"
         id="path4220"
         d="m 1238.9521,128.0726 -10.6066,-39.395946 -8.0812,-24.243661 -26.264,-34.345187 27.2741,-3.030457 13.132,35.355339 16.1625,27.779195 7.071,11.111677 4.5457,15.15229"
         style="color:#000000;fill:#5a7997;fill-opacity:1;fill-rule:nonzero;stroke:none;stroke-width:0.69999999;marker:none;visibility:visible;display:inline;overflow:visible;enable-background:accumulate" />
      <path
         sodipodi:nodetypes="ccccccccc"
         inkscape:connector-curvature="0"
         id="path4239"
         d="m 1189.9607,25.926871 31.3008,38.510629 8.0938,24.25 10.5938,39.375 5.8124,-2.90625 -9.8437,-36.46875 -8.0625,-24.25 -30.7006,-35.606441 z"
         style="color:#000000;fill:#295f9a;fill-opacity:1;fill-rule:nonzero;stroke:none;stroke-width:0.69999999;marker:none;visibility:visible;display:inline;overflow:visible;enable-background:accumulate" />
      <path
         sodipodi:nodetypes="ccccccccccc"
         inkscape:connector-curvature="0"
         id="path4263"
         d="m 1222.8531,27.419643 -1.6027,1.642857 11.6964,35.732143 16.1563,27.78125 7.0937,11.093747 4.4063,14.71875 3.1562,-1.5625 -4.5312,-15.15625 -7.0938,-11.124997 -16.1562,-27.78125 z"
         style="color:#000000;fill:#c7d6e5;fill-opacity:1;fill-rule:nonzero;stroke:none;stroke-width:0.69999999;marker:none;visibility:visible;display:inline;overflow:visible;enable-background:accumulate" />
      <path
         sodipodi:nodetypes="cscsc"
         inkscape:connector-curvature="0"
         id="path3887"
         d="m 1239.3854,130.60971 c 0,0 14.3796,-7.05817 19.363,-7.4662 4.9833,-0.40803 12.1024,-0.99094 12.1024,-0.99094 0,0 -7.315,-28.068103 -19.7213,-22.03555 -12.4062,6.03255 -11.7441,30.49269 -11.7441,30.49269 z"
         style="fill:#000000;fill-opacity:1;stroke:#000000;stroke-width:1px;stroke-linecap:butt;stroke-linejoin:miter;stroke-opacity:1" />
      <path
         sodipodi:nodetypes="cssc"
         inkscape:connector-curvature="0"
         id="path3889"
         d="m 1111.4286,73.790754 c 0,0 -44.2858,48.571436 -42.8572,62.857146 0.8305,8.30454 14.6954,22.88494 26.1598,33.6383 8.257,7.74487 -4.4292,27.14161 -4.4292,27.14161"
         style="fill:none;stroke:#000000;stroke-width:5;stroke-linecap:butt;stroke-linejoin:miter;stroke-miterlimit:4;stroke-opacity:1;stroke-dasharray:none" />
      <path
         sodipodi:nodetypes="cssc"
         inkscape:connector-curvature="0"
         id="path3891"
         d="m 1057.1429,43.790754 c 0,0 -37.1429,10 -42.8572,27.142857 -3.1794,9.538093 2.6046,36.572519 -1.9447,53.751799 -3.6272,13.69711 -18.05529,19.10534 -18.05529,19.10534"
         style="fill:none;stroke:#000000;stroke-width:5;stroke-linecap:butt;stroke-linejoin:miter;stroke-miterlimit:4;stroke-opacity:1;stroke-dasharray:none" />
      <path
         sodipodi:nodetypes="cssc"
         inkscape:connector-curvature="0"
         id="path3893"
         d="M 1027.1429,-3.3521037 C 1010,0.93361063 978.57143,2.3621821 970,18.076468 c -4.94629,9.068196 -10.31567,33.294757 -21.66278,46.183955 -8.31631,9.446506 -24.05151,9.530331 -24.05151,9.530331"
         style="fill:none;stroke:#000000;stroke-width:5;stroke-linecap:butt;stroke-linejoin:miter;stroke-miterlimit:4;stroke-opacity:1;stroke-dasharray:none" />
      <path
         sodipodi:nodetypes="cssc"
         inkscape:connector-curvature="0"
         id="path3895"
         d="m 1271.124,5.2193249 c 0,0 50,1.4285713 60,10.0000001 5.4702,4.688708 7.9481,20.064072 9.0705,33.031565 0.9295,10.738388 16.5869,15.279892 16.5869,15.279892"
         style="fill:none;stroke:#000000;stroke-width:5;stroke-linecap:butt;stroke-linejoin:miter;stroke-miterlimit:4;stroke-opacity:1;stroke-dasharray:none" />
      <path
         sodipodi:nodetypes="cssc"
         inkscape:connector-curvature="0"
         id="path3897"
         d="m 1283.9811,-39.066389 c 0,0 30,-1.428572 41.4286,5.714285 7.4308,4.644225 17.8812,23.178777 24.2832,35.5775674 3.4443,6.6706518 19.8589,6.5145269 19.8589,6.5145269"
         style="fill:none;stroke:#000000;stroke-width:5;stroke-linecap:butt;stroke-linejoin:miter;stroke-miterlimit:4;stroke-opacity:1;stroke-dasharray:none" />
      <path
         style="fill:#d9dee6;fill-opacity:1;stroke:none"
         d="m 1105.1068,-142.1432 c 44.4467,-15.15229 93.0207,12.65096 97.4797,50.002548 5.3405,44.73618 -29.2944,80.30712 -68.6904,83.3375802 -32.5117,2.50091 -83.8427,-30.8096502 -80.8122,-67.1751402 3.0305,-36.365488 32.83,-62.124378 52.0229,-66.164988 z"
         id="path3835"
         inkscape:connector-curvature="0"
         sodipodi:nodetypes="csssc" />
      <path
         inkscape:connector-curvature="0"
         id="path4109"
         d="m 1125.9375,-146.34375 c -8.306,0.041 -16.7912,1.34645 -25.125,4.1875 -12.9567,2.72773 -30.562,15.52039 -41.6875,34.625 1.3012,-1.70362 2.5191,-3.53532 3.9062,-5.09375 2.557,-2.87262 5.2323,-5.46666 7.9688,-7.8125 2.7365,-2.34584 5.5425,-4.44309 8.3125,-6.21875 2.77,-1.77566 5.5299,-3.24418 8.1875,-4.40625 2.6576,-1.16207 5.1946,-1.99492 7.5938,-2.5 2.7779,-0.94702 5.5766,-1.72417 8.375,-2.34375 2.7983,-0.61958 5.6109,-1.09779 8.4062,-1.40625 2.7953,-0.30846 5.5751,-0.4551 8.3438,-0.46875 2.7686,-0.0137 5.5315,0.11015 8.25,0.375 2.7184,0.26485 5.3865,0.66047 8.0312,1.1875 2.6447,0.52703 5.2651,1.19585 7.8125,1.96875 2.5474,0.7729 5.0422,1.65378 7.4687,2.65625 2.4266,1.00247 4.7805,2.12803 7.0626,3.34375 2.282,1.21572 4.4796,2.52485 6.5937,3.9375 2.1141,1.41265 4.1399,2.90672 6.0625,4.5 1.9226,1.59328 3.7613,3.27366 5.4688,5.03125 1.7074,1.75759 3.2811,3.59441 4.75,5.5 1.4688,1.90559 2.8246,3.90022 4.0312,5.9375 1.2066,2.03728 2.2666,4.128593 3.1875,6.28125 0.9209,2.152657 1.7009,4.373278 2.3125,6.625 0.6116,2.251722 1.0651,4.540526 1.3438,6.875 0.3337,2.796011 0.5011,5.562549 0.5312,8.28125 0.03,2.718701 -0.087,5.370023 -0.3438,8 -0.2564,2.629977 -0.6617,5.220161 -1.1874,7.75 -0.5258,2.529839 -1.1597,5.019212 -1.9376,7.4375 -0.7778,2.418288 -1.6746,4.767177 -2.6874,7.0625 -0.9562,2.166855 -2.0369,4.265118 -3.1876,6.3125 10.957,-14.402798 16.979,-32.933418 14.5313,-53.4375 -3.6229,-30.34817 -36.3825,-54.36498 -72.375,-54.1875 z"
         style="fill:#ffffff;fill-opacity:1;stroke:none" />
      <path
         inkscape:original-d="m 1105.612,-139.11274 c 44.4467,-15.15229 93.0207,12.65096 97.4797,50.002546 5.3405,44.73618 -29.2944,80.3071198 -68.6904,83.3375798 -32.5117,2.50091 -83.8427,-30.8096498 -80.8122,-67.1751398 3.0305,-36.365486 32.83,-62.124376 52.0229,-66.164986 z"
         inkscape:path-effect="#path-effect3809"
         sodipodi:nodetypes="csssc"
         inkscape:connector-curvature="0"
         id="path3780"
         d="m 1104.3544,-142.80163 c 0,0 0.8525,-0.35754 2.463,-0.94198 1.6105,-0.58445 3.9834,-1.39134 7.0433,-2.19061 3.06,-0.79927 6.8106,-1.5871 11.1355,-2.0958 4.3249,-0.50869 9.2256,-0.73483 14.508,-0.4273 5.1273,0.29743 10.6071,1.09123 16.1925,2.52325 5.5854,1.43202 11.2736,3.50361 16.7809,6.25738 4.804,2.391 9.478,5.32393 13.7931,8.75923 4.3152,3.43531 8.2685,7.37285 11.6722,11.7021 3.4643,4.39921 6.2776,9.23843 8.3104,14.21934 2.0329,4.98092 3.2838,10.100388 3.7738,15.057884 0.6451,6.935976 0.2174,13.338229 -0.7991,18.700123 -0.6856,3.616333 -2.001,8.953289 -4.4833,15.073589 -1.6914,4.154624 -3.9179,8.640295 -6.7252,13.147145 -2.8074,4.506849 -6.1943,9.032017 -10.0874,13.309212 0,1e-6 0,2e-6 0,2e-6 -1.1113,1.221397 -2.263,2.422473 -3.4512,3.599233 -2.7306,2.70421 -5.7142,5.407136 -9.0354,8.035105 -3.3212,2.627968 -6.9809,5.18164 -11.0486,7.534668 -4.0678,2.3530286 -8.5449,4.5061079 -13.4703,6.2699987 -4.9254,1.7638908 -10.301,3.1392527 -16.1124,3.86372765 -4.6806,0.53821394 -9.5409,0.47582221 -14.4724,-0.16066529 -4.9314,-0.63648746 -9.9337,-1.84900716 -14.8539,-3.53791636 0,-7e-7 0,-1.4e-6 0,-2.2e-6 -8.0085,-2.6898862 -16.1324,-6.6342095 -23.9079,-12.0279395 -1.6522,-1.146085 -3.2543,-2.325566 -4.8063,-3.533673 -4.4874,-3.464465 -8.6009,-7.237405 -12.2303,-11.255832 -3.6293,-4.018428 -6.7752,-8.282297 -9.3801,-12.731081 -2.673,-4.578646 -4.7033,-9.414982 -5.973,-14.344528 -1.33,-5.180517 -1.7246,-10.416322 -1.252,-15.421687 0.5529,-5.526038 1.6702,-10.678385 3.1422,-15.434401 1.472,-4.756017 3.2993,-9.116384 5.3215,-13.088102 4.0443,-7.94344 8.838,-14.32147 13.5484,-19.40578 3.1199,-3.3812 6.2237,-6.22369 9.1797,-8.60817 2.956,-2.38448 5.7649,-4.31279 8.3378,-5.8863 2.6658,-1.64937 5.1316,-2.92522 7.2935,-3.88746 2.1619,-0.96224 4.0206,-1.61715 5.5191,-2.07629 1.4985,-0.45915 2.6374,-0.72598 3.3948,-0.89123 0.7574,-0.16525 1.1338,-0.23011 1.1338,-0.23011 0,0 -0.369,0.10708 -1.1049,0.35174 -0.736,0.24466 -1.8387,0.62809 -3.2705,1.23204 -1.4318,0.60395 -3.1921,1.43188 -5.2127,2.58222 -2.0206,1.15034 -4.3007,2.62939 -6.7528,4.47948 -4.7205,3.53693 -10.2254,8.51357 -15.6464,15.48994 -4.0774,5.24212 -8.1054,11.66199 -11.3004,19.359954 -1.5975,3.848984 -2.9804,8.013533 -4.0036,12.470416 -1.0231,4.456883 -1.6871,9.206845 -1.8054,14.189907 -0.098,4.093147 0.5533,8.345604 1.9302,12.505662 1.3153,3.982047 3.312,7.894188 5.8381,11.647096 2.4702,3.67838 5.4408,7.176059 8.8525,10.471263 3.4118,3.295203 7.2653,6.387824 11.4496,9.263961 1.4564,0.993519 2.9526,1.957665 4.4878,2.888232 7.2107,4.371033 14.3775,7.745375 21.3703,10.279087 0,1e-6 0,2e-6 0,2e-6 4.3371,1.536861 8.5544,2.799617 12.6197,3.637535 4.0653,0.837919 7.9807,1.251763 11.7442,1.150738 0,0 0,0 0,0 5.0632,-0.09936 9.9094,-0.739738 14.4752,-1.777244 4.5658,-1.037505 8.8511,-2.473863 12.8019,-4.206631 7.9015,-3.465536 14.4585,-8.112372 19.3349,-13.322203 1.0118,-1.080961 1.9691,-2.19686 2.8692,-3.338204 0,-1e-6 0,-2e-6 0,-2e-6 3.3366,-4.231606 5.8803,-8.809225 7.6975,-13.250199 1.8171,-4.440975 2.9142,-8.740567 3.5606,-12.559615 0.9661,-5.65735 0.9764,-10.270829 1.2356,-13.311154 0.3825,-4.487183 0.5777,-9.77645 0.1147,-15.582389 -0.2571,-3.633257 -1.0413,-7.505396 -2.4079,-11.44275 -1.3666,-3.937352 -3.3145,-7.937422 -5.7873,-11.756012 -2.4531,-3.77811 -5.4339,-7.3814 -8.8146,-10.69467 -3.3807,-3.31327 -7.1589,-6.33525 -11.1508,-8.97888 -4.5746,-3.02344 -9.4401,-5.54454 -14.3495,-7.52879 -4.9094,-1.98424 -9.86,-3.43125 -14.6044,-4.39968 -4.8752,-0.99511 -9.5339,-1.47803 -13.7349,-1.62334 -4.201,-0.14531 -7.9443,0.0437 -11.0469,0.34613 -3.1026,0.30242 -5.5664,0.71333 -7.2511,1.02706 -1.6847,0.31373 -2.5926,0.52417 -2.5926,0.52417 z"
         style="fill:#000000;fill-opacity:1;stroke:#000000;stroke-width:1px;stroke-linecap:butt;stroke-linejoin:miter;stroke-opacity:1" />
      <path
         style="color:#000000;fill:#000000;fill-opacity:1;fill-rule:nonzero;stroke:none;stroke-width:0.69999999;marker:none;visibility:visible;display:inline;overflow:visible;enable-background:accumulate"
         d="m 1254.2857,-135.14286 c -10.2567,0 -14.9911,12.5915 -14.9911,22.84822 0,10.25671 4.0201,19.665176 14.2768,19.665176 10.2567,0 19.9911,-10.479886 19.9911,-20.736606 0,-10.25672 -9.0201,-21.77679 -19.2768,-21.77679 z"
         id="path3885"
         inkscape:connector-curvature="0"
         sodipodi:nodetypes="sssss" />
      <path
         sodipodi:nodetypes="sssss"
         inkscape:connector-curvature="0"
         id="path3880"
         d="m 1160.3571,-93.357143 c -10.2567,0 -21.4196,11.162926 -21.4196,21.419643 0,10.256717 6.8772,20.736607 17.1339,20.736607 10.2567,0 19.9911,-10.47989 19.9911,-20.736607 0,-10.256717 -5.4487,-21.419643 -15.7054,-21.419643 z"
         style="color:#000000;fill:#000000;fill-opacity:1;fill-rule:nonzero;stroke:none;stroke-width:0.69999999;marker:none;visibility:visible;display:inline;overflow:visible;enable-background:accumulate" />
      <path
         sodipodi:nodetypes="csc"
         inkscape:original-d="m 1241.4787,130.85439 c 0,0 -11.5109,-50.757618 -26.1317,-72.186189 -14.6209,-21.428571 -26.2,-37.142857 -26.2,-37.142857"
         inkscape:path-effect="#path-effect4212"
         inkscape:connector-curvature="0"
         id="path4158"
         d="m 1239.3881,131.41943 c 0,0 -5.9759,-15.33122 -9.2068,-27.56812 -1.0196,-3.39769 -1.8546,-6.535334 -2.2711,-9.035279 -0.3876,-2.326298 -1.1248,-7.640851 -3.0891,-13.00541 -0.2582,-0.705422 -0.5559,-1.424241 -0.8886,-2.159812 -1.191,-2.628002 -2.7997,-5.485866 -4.7143,-8.647636 -1.9147,-3.16177 -4.1121,-6.622603 -6.7604,-10.363684 -0.7233,-1.029238 -1.454,-2.102464 -2.1893,-3.224139 -6.8562,-10.457631 -12.0374,-18.238728 -15.6993,-23.759903 0,0 0,0 0,0 -2.3632,-3.562958 -4.0964,-6.180396 -5.2652,-7.951941 0,0 0,0 0,0 -0.632,-0.957994 -1.0985,-1.667632 -1.4114,-2.144776 0,0 0,0 0,0 -0.1628,-0.248234 -0.2837,-0.433107 -0.3647,-0.557221 0,0 0,0 0,0 -0.041,-0.06304 -0.072,-0.110126 -0.092,-0.141792 0,1e-6 0,0 0,0 0,-1e-6 0,-2e-6 0,-3e-6 0,0 0,0 0,-1e-6 1.1028,-0.859561 1.6677,-1.300243 1.709,-1.332494 0,0 0,0 0,0 0,-10e-7 0,-10e-7 0,-10e-7 0,0 0,0 0,0 0,0 0,0 0,0 0,0 0,0 0,0 0,0 0,0 0,0 0,0 0,-1e-6 0,-1e-6 0,0 0,0 0,0 0,-0.0013 0,-0.0019 0,-0.0019 0,0 -8e-4,6.01e-4 -0,0.0019 0,0 0,0 0,0 0,0 0,0 0,1e-6 0,0 0,0 0,0 0,0 0,0 0,0 0,0 0,0 0,0 0,0 0,0 0,0 0,0 0,0 0,0 0,10e-7 0,10e-7 0,10e-7 -0.041,0.03225 -0.6093,0.475238 -1.698,1.32441 0,0 0,1e-6 0,1e-6 0,1e-6 -10e-5,2e-6 -10e-5,3e-6 0,0 0,0 0,1e-6 0.028,0.02651 0.069,0.06601 0.1233,0.119136 0,0 0,0 0,0 0.1076,0.104669 0.2674,0.261114 0.4806,0.472553 0,0 0,0 0,0 0.4098,0.406501 1.016,1.01482 1.8247,1.845266 0,0 0,0 0,0 1.4958,1.536199 3.6836,3.830019 6.5923,7.010215 0,0 0,0 0,0 4.5097,4.930479 10.7608,11.983222 18.7839,21.698924 0.86,1.041403 1.6596,2.07382 2.4065,3.093886 1.4856,2.043037 2.658,4.096418 3.6176,6.084696 0.9595,1.988277 1.7068,3.913169 2.3357,5.738756 1.2578,3.651173 2.0538,6.901472 3.0154,9.648924 0.279,0.795677 0.5699,1.551243 0.8849,2.265925 1.1791,2.674838 2.6743,5.085141 3.9823,7.119057 1.3081,2.033916 2.429,3.686163 2.8476,4.792297 0.9007,2.379751 1.7128,5.627486 2.3859,9.223741 1.926,12.60052 2.661,29.45442 2.661,29.45442 z"
         style="fill:#000000;fill-opacity:1;stroke:none" />
      <path
         inkscape:original-d="m 1215.0799,17.239629 c 0,0 15.9814,41.428572 23.8968,54.285715 7.9154,12.857143 29.023,47.142856 29.023,47.142856"
         inkscape:path-effect="#path-effect4173"
         inkscape:connector-curvature="0"
         id="path4160"
         d="m 1217.0893,16.431223 c 0,0 6.1454,11.32051 10.5314,21.687615 1.8193,4.155704 3.3789,8.131558 4.1378,11.160952 0.3715,1.48298 0.9895,4.275324 2.0539,7.471236 0,0 0,0 0,10e-7 0.4898,1.462942 1.0589,3.007838 1.7391,4.538664 1.2291,2.766087 3.1463,5.710597 5.6388,8.872879 2.8469,3.656812 6.1247,7.98502 9.3849,13.557272 13.9975,23.923708 19.2573,33.790888 19.269,33.812808 -10e-5,1e-5 -2e-4,7e-5 -3e-4,1.3e-4 -1.2291,0.75677 -1.8442,1.13542 -1.8442,1.13542 0,0 0.6151,-0.37865 1.8442,-1.13541 10e-5,-6e-5 2e-4,-1.2e-4 3e-4,-1.8e-4 -0.017,-0.0187 -7.6476,-8.44802 -24.4148,-30.64603 -3.8976,-5.159995 -6.3006,-10.035436 -8.2237,-14.270965 -1.8177,-3.972875 -2.8299,-7.436175 -4.2695,-10.153385 -0.79,-1.491055 -1.6939,-2.870801 -2.6024,-4.115168 0,0 0,-1e-6 0,-1e-6 -2.0497,-2.809297 -4.105,-5.003776 -4.7743,-6.372685 -1.357,-2.775189 -2.6802,-6.940298 -3.8368,-11.440483 -2.6922,-11.039051 -4.6334,-24.10267 -4.6334,-24.10267 z"
         style="fill:#000000;fill-opacity:1;stroke:none" />
      <path
         style="color:#000000;fill:#ffffff;fill-opacity:1;fill-rule:nonzero;stroke:none;stroke-width:0.69999999;marker:none;visibility:visible;display:inline;overflow:visible;enable-background:accumulate"
         d="m 1170.5229,-89.914716 c -3.3654,0 -5.2239,7.045501 -5.2239,10.410898 0,3.365398 2.2564,6.804022 5.6218,6.804022 3.3655,0 6.5594,-3.438624 6.5594,-6.804022 0,-3.365397 -3.592,-10.410898 -6.9573,-10.410898 z"
         id="path4311"
         inkscape:connector-curvature="0"
         sodipodi:nodetypes="sssss" />
      <path
         sodipodi:nodetypes="sssss"
         inkscape:connector-curvature="0"
         id="path4313"
         d="m 1268.7625,-126.74594 c -3.8978,0 -4.8225,6.14509 -4.8225,10.04276 0,3.89767 3.2766,6.98721 7.1744,6.98721 3.8975,0 4.9735,-4.8569 4.9735,-8.75456 0,-3.89767 -3.4279,-8.27541 -7.3254,-8.27541 z"
         style="color:#000000;fill:#ffffff;fill-opacity:1;fill-rule:nonzero;stroke:none;stroke-width:0.69999999;marker:none;visibility:visible;display:inline;overflow:visible;enable-background:accumulate" />
      <path
         sodipodi:nodetypes="sssss"
         inkscape:connector-curvature="0"
         id="path4317"
         d="m 1049.0105,10.440459 c -6.9347,0 -10.0489,9.347511 -8.4659,15.384725 1.8834,7.18305 5.612,11.303847 12.5468,11.303847 6.9348,0 12.5857,-5.062537 12.5857,-11.303847 0,-6.241309 -9.7318,-15.384725 -16.6666,-15.384725 z"
         style="color:#000000;fill:#5a9761;fill-opacity:1;fill-rule:nonzero;stroke:#000000;stroke-width:3;stroke-miterlimit:4;stroke-opacity:1;stroke-dasharray:none;marker:none;visibility:visible;display:inline;overflow:visible;enable-background:accumulate" />
      <path
         style="color:#000000;fill:#5a9761;fill-opacity:1;fill-rule:nonzero;stroke:#000000;stroke-width:3;stroke-linecap:butt;stroke-linejoin:miter;stroke-miterlimit:4;stroke-opacity:1;stroke-dasharray:none;stroke-dashoffset:0;marker:none;visibility:visible;display:inline;overflow:visible;enable-background:accumulate"
         d="m 1085.069,19.616964 c -3.2041,0 -6.6406,2.321135 -5.9092,5.110534 0.8702,3.318814 2.593,5.222763 5.797,5.222763 3.2041,0 5.8151,-2.339066 5.8151,-5.222763 0,-2.883698 -2.4988,-5.110534 -5.7029,-5.110534 z"
         id="path4320"
         inkscape:connector-curvature="0"
         sodipodi:nodetypes="sssss" />
      <path
         sodipodi:nodetypes="sssss"
         inkscape:connector-curvature="0"
         id="path4339"
         d="m 1074.9437,36.91218 c -3.204,0 -6.3267,4.832444 -5.5953,7.621842 0.8702,3.318815 2.593,5.222763 5.797,5.222763 3.2041,0 5.8151,-2.339065 5.8151,-5.222763 0,-2.883697 -2.8126,-7.621842 -6.0168,-7.621842 z"
         style="color:#000000;fill:#5a9761;fill-opacity:1;fill-rule:nonzero;stroke:#000000;stroke-width:3;stroke-linecap:butt;stroke-linejoin:miter;stroke-miterlimit:4;stroke-opacity:1;stroke-dasharray:none;stroke-dashoffset:0;marker:none;visibility:visible;display:inline;overflow:visible;enable-background:accumulate" />
    </g>
  </g>
</svg>
